<svg xmlns="http://www.w3.org/2000/svg" xml:space="preserve" style="enable-background:new 0 0 280.036 280.036" viewBox="0 0 280.036 280.036"><path d="M140.018 0c77.331 0 140.014 62.691 140.014 140.014 0 77.331-62.682 140.022-140.014 140.022C62.695 280.036.004 217.345.004 140.014.004 62.691 62.695 0 140.018 0z" style="fill:#efc75e"/><path d="M116.303 116.071c-8.208 5.732-18.736 8.068-29.175 5.286-18.744-5.005-29.867-24.205-24.844-42.879 1.076-3.982 2.905-7.526 5.128-10.729-6.537 4.55-11.647 11.201-13.87 19.479-5.023 18.674 6.099 37.874 24.844 42.879 14.754 3.93 29.718-2.187 37.917-14.036zm111.224-11.052c-24.17 0-43.754-19.593-43.754-43.754 0-9.845 3.369-18.832 8.865-26.148-10.641 7.981-17.615 20.582-17.615 34.898 0 24.17 19.584 43.754 43.754 43.754 14.325 0 26.909-6.974 34.89-17.607-7.3 5.488-16.296 8.857-26.14 8.857zM100.455 209.487c-9.328-2.503-14.868-12.094-12.374-21.44l.98-2.59c-4.612 2.083-8.322 6.064-9.731 11.341-2.494 9.346 3.045 18.937 12.374 21.44 8.418 2.258 17.003-2.056 20.451-9.775-3.553 1.61-7.63 2.118-11.7 1.024zm85.234-9.145c-14.01-3.763-22.323-18.149-18.561-32.168.674-2.538 1.803-4.804 3.115-6.931-5.644 3.387-10.037 8.838-11.866 15.682-3.763 14.019 4.559 28.405 18.561 32.168 11.464 3.072 23.094-2.021 29.018-11.63-5.881 3.527-13.109 4.787-20.267 2.879z" style="fill:#c89147"/><path d="M157.52 262.534c-77.323 0-140.014-62.691-140.014-140.022 0-34.207 12.304-65.518 32.676-89.836C19.528 58.359.004 96.889.004 140.014c0 77.331 62.691 140.022 140.014 140.022 43.124 0 81.645-19.514 107.338-50.169-24.319 20.372-55.62 32.667-89.836 32.667z" style="fill:#d7b354"/><path d="M262.337 71.958c-10.02-17.957-23.899-33.411-40.481-45.391l-3.08-.315c-24.17 0-43.754 19.593-43.754 43.754 0 24.17 19.584 43.754 43.754 43.754 23.505.01 42.52-18.559 43.561-41.802z" style="fill:#dfa14f"/><circle cx="183.729" cy="183.724" r="26.261" style="fill:#dfa14f"/><path d="M96.579 62.472c-18.753-5.005-38.014 6.073-43.037 24.756-5.023 18.674 6.099 37.874 24.844 42.879 18.753 4.997 38.022-6.082 43.045-24.756 5.023-18.674-6.108-37.873-24.852-42.879z" style="fill:#dfa14f"/><circle cx="96.238" cy="201.331" r="17.502" style="fill:#dfa14f"/></svg>