<svg xmlns="http://www.w3.org/2000/svg" viewBox="0 0 24 24"><path fill="#fff" d="M14.72 17.84c-.32.27-.83.53-1.23.66-1.34.33-2.41-.34-2.62-.46-.21-.11-.78-.38-.78-.38l.41-.13c1.34-.54 1.89-1.24 2.09-2.11.2-.84-.16-1.56-.31-2.39-.12-.69-.11-1.28.12-1.9.02-.05.12-.43.12-.43l.13.41c.71 1.51 2.72 2.18 3.07 3.84.03.15.05.3.05.46.03.89-.37 1.85-1.05 2.43zM12.4 4.34c-.12.08-.22.15-.31.22-2.99 2.31-2.91 5.93-2.31 8.55l.01.03.01.03c.06.35-.05.7-.28.96-.24.26-.58.41-.95.41-.44 0-.85-.2-1.22-.6a7.476 7.476 0 0 1-1.5-2.46c-.36.77-.75 1.98-.67 3.19.04.51.12 1 .25 1.43.18.6.43 1.16.75 1.65 1.05 1.66 2.88 2.82 4.78 3.05.42.05.85.08 1.26.08 1.34 0 3.25-.27 4.74-1.57 1.77-1.56 2.35-3.99 1.44-6.06-.04-.1-.06-.14-.09-.19l-.04-.08c-.21-.42-.47-.81-.75-1.14-.24-.3-.48-.56-.79-.83-.3-.27-.64-.51-1-.77-.46-.33-.93-.67-1.38-1.09-1.37-1.32-2.05-3.04-1.95-4.81M14.41 2s-.2.2-.56.99c-.66 1.92-.15 3.95 1.34 5.39.73.69 1.61 1.17 2.36 1.84.32.29.62.59.89.93.36.42.66.89.91 1.38.05.1.1.2.14.3 1.12 2.55.36 5.47-1.73 7.31-1.53 1.33-3.54 1.86-5.54 1.86-.47 0-.95-.03-1.41-.09-2.29-.28-4.42-1.66-5.63-3.57a7.465 7.465 0 0 1-1.17-3.6c-.12-1.88.67-3.63 1.08-4.31.41-.69 1.55-2.18 1.55-2.18s0 .03-.01.09c-.22 1.77.37 3.54 1.59 4.88.15.17.27.22.34.22.06 0 .09-.04.08-.09C7.79 9.59 8.37 6 11.35 3.7c.59-.46 1.51-.94 1.98-1.18S14.41 2 14.41 2z"/></svg>